HIERARCHY
ROOT Hips
{
  OFFSET 0.449216 7.50655 172.46
  CHANNELS 6 Xposition Yposition Zposition Zrotation Xrotation Yrotation
  JOINT Spine
  {
    OFFSET -0.133107 17.534 -1.51384
    CHANNELS 6 Xposition Yposition Zposition Zrotation Xrotation Yrotation
    JOINT Spine1
    {
      OFFSET -0.0140236 22.6865 -0.221803
      CHANNELS 6 Xposition Yposition Zposition Zrotation Xrotation Yrotation
      JOINT Spine2
      {
        OFFSET 0.604095 27.2915 -1.22211
        CHANNELS 6 Xposition Yposition Zposition Zrotation Xrotation Yrotation
        JOINT Neck
        {
          OFFSET -0.54999 27.7711 0.379849
          CHANNELS 6 Xposition Yposition Zposition Zrotation Xrotation Yrotation
          JOINT Head
          {
            OFFSET -0.456515 18.6834 4.65447
            CHANNELS 6 Xposition Yposition Zposition Zrotation Xrotation Yrotation
            JOINT HeadTop_End
            {
              OFFSET 0.313645 35.2545 10.0781
              CHANNELS 6 Xposition Yposition Zposition Zrotation Xrotation Yrotation
              End Site
              {
                OFFSET 0 0 0
              }
            }
            JOINT RightEye
            {
              OFFSET -5.91139 13.8299 16.4589
              CHANNELS 6 Xposition Yposition Zposition Zrotation Xrotation Yrotation
              End Site
              {
                OFFSET 0 0 0
              }
            }
            JOINT LeftEye
            {
              OFFSET 5.75366 13.8511 16.9022
              CHANNELS 6 Xposition Yposition Zposition Zrotation Xrotation Yrotation
              End Site
              {
                OFFSET 0 0 0
              }
            }
          }
        }
        JOINT LeftShoulder
        {
          OFFSET 9.65809 17.1798 0.393621
          CHANNELS 6 Xposition Yposition Zposition Zrotation Xrotation Yrotation
          JOINT LeftArm
          {
            OFFSET 21.5048 0.579175 -2.73789
            CHANNELS 6 Xposition Yposition Zposition Zrotation Xrotation Yrotation
            JOINT LeftForeArm
            {
              OFFSET 52.3358 1.42958 2.41804
              CHANNELS 6 Xposition Yposition Zposition Zrotation Xrotation Yrotation
              JOINT LeftHand
              {
                OFFSET 41.8847 0.117838 6.21031
                CHANNELS 6 Xposition Yposition Zposition Zrotation Xrotation Yrotation
                JOINT LeftHandMiddle1
                {
                  OFFSET 22.8129 -1.60957 2.49076
                  CHANNELS 6 Xposition Yposition Zposition Zrotation Xrotation Yrotation
                  JOINT LeftHandMiddle2
                  {
                    OFFSET 6.02919 0.375492 0.441768
                    CHANNELS 6 Xposition Yposition Zposition Zrotation Xrotation Yrotation
                    JOINT LeftHandMiddle3
                    {
                      OFFSET 5.82062 -0.341841 0.444061
                      CHANNELS 6 Xposition Yposition Zposition Zrotation Xrotation Yrotation
                      End Site
                      {
                        OFFSET 5.24968 -0.18485 0.38643
                      }
                    }
                  }
                }
                JOINT LeftHandThumb1
                {
                  OFFSET 8.57333 -3.68257 5.90761
                  CHANNELS 6 Xposition Yposition Zposition Zrotation Xrotation Yrotation
                  JOINT LeftHandThumb2
                  {
                    OFFSET 7.05954 -3.92834 4.59012
                    CHANNELS 6 Xposition Yposition Zposition Zrotation Xrotation Yrotation
                    JOINT LeftHandThumb3
                    {
                      OFFSET 5.45408 -3.10462 3.4162
                      CHANNELS 6 Xposition Yposition Zposition Zrotation Xrotation Yrotation
                      End Site
                      {
                        OFFSET 2.52995 -1.26392 2.59339
                      }
                    }
                  }
                }
                JOINT LeftHandIndex1
                {
                  OFFSET 22.071 -2.18211 6.80559
                  CHANNELS 6 Xposition Yposition Zposition Zrotation Xrotation Yrotation
                  JOINT LeftHandIndex2
                  {
                    OFFSET 5.655 -0.454426 0.363402
                    CHANNELS 6 Xposition Yposition Zposition Zrotation Xrotation Yrotation
                    JOINT LeftHandIndex3
                    {
                      OFFSET 5.80873 0.138203 0.202517
                      CHANNELS 6 Xposition Yposition Zposition Zrotation Xrotation Yrotation
                      End Site
                      {
                        OFFSET 4.88522 0.115492 0.18966
                      }
                    }
                  }
                }
                JOINT LeftHandRing1
                {
                  OFFSET 22.2301 -1.58609 -1.07237
                  CHANNELS 6 Xposition Yposition Zposition Zrotation Xrotation Yrotation
                  JOINT LeftHandRing2
                  {
                    OFFSET 5.51571 -0.442342 0.085295
                    CHANNELS 6 Xposition Yposition Zposition Zrotation Xrotation Yrotation
                    JOINT LeftHandRing3
                    {
                      OFFSET 5.04027 0.123425 0.426335
                      CHANNELS 6 Xposition Yposition Zposition Zrotation Xrotation Yrotation
                      End Site
                      {
                        OFFSET 4.57391 -0.307134 0.320977
                      }
                    }
                  }
                }
                JOINT LeftHandPinky1
                {
                  OFFSET 20.5029 -2.14047 -5.05193
                  CHANNELS 6 Xposition Yposition Zposition Zrotation Xrotation Yrotation
                  JOINT LeftHandPinky2
                  {
                    OFFSET 5.3068 0.0720653 0.391791
                    CHANNELS 6 Xposition Yposition Zposition Zrotation Xrotation Yrotation
                    JOINT LeftHandPinky3
                    {
                      OFFSET 3.22103 -0.125043 0.129337
                      CHANNELS 6 Xposition Yposition Zposition Zrotation Xrotation Yrotation
                      End Site
                      {
                        OFFSET 3.42511 -0.0864245 0.168201
                      }
                    }
                  }
                }
              }
            }
          }
        }
        JOINT RightShoulder
        {
          OFFSET -10.1474 17.3477 0.39229
          CHANNELS 6 Xposition Yposition Zposition Zrotation Xrotation Yrotation
          JOINT RightArm
          {
            OFFSET -21.9154 0.397362 -3.70373
            CHANNELS 6 Xposition Yposition Zposition Zrotation Xrotation Yrotation
            JOINT RightForeArm
            {
              OFFSET -55.8193 -0.744656 -3.26491
              CHANNELS 6 Xposition Yposition Zposition Zrotation Xrotation Yrotation
              JOINT RightHand
              {
                OFFSET -41.5962 -0.0462463 3.11173
                CHANNELS 6 Xposition Yposition Zposition Zrotation Xrotation Yrotation
                JOINT RightHandMiddle1
                {
                  OFFSET -21.2144 -0.543111 2.08571
                  CHANNELS 6 Xposition Yposition Zposition Zrotation Xrotation Yrotation
                  JOINT RightHandMiddle2
                  {
                    OFFSET -5.60828 -0.0767494 0.0163055
                    CHANNELS 6 Xposition Yposition Zposition Zrotation Xrotation Yrotation
                    JOINT RightHandMiddle3
                    {
                      OFFSET -6.03974 -0.600176 0.0448581
                      CHANNELS 6 Xposition Yposition Zposition Zrotation Xrotation Yrotation
                      End Site
                      {
                        OFFSET -5.30842 0.128888 0.295933
                      }
                    }
                  }
                }
                JOINT RightHandThumb1
                {
                  OFFSET -7.4243 -3.08558 5.52562
                  CHANNELS 6 Xposition Yposition Zposition Zrotation Xrotation Yrotation
                  JOINT RightHandThumb2
                  {
                    OFFSET -6.19932 -3.17205 4.11568
                    CHANNELS 6 Xposition Yposition Zposition Zrotation Xrotation Yrotation
                    JOINT RightHandThumb3
                    {
                      OFFSET -6.03384 -3.32236 3.71941
                      CHANNELS 6 Xposition Yposition Zposition Zrotation Xrotation Yrotation
                      End Site
                      {
                        OFFSET -3.49886 -1.24417 2.62991
                      }
                    }
                  }
                }
                JOINT RightHandIndex1
                {
                  OFFSET -21.0474 -1.11099 6.52255
                  CHANNELS 6 Xposition Yposition Zposition Zrotation Xrotation Yrotation
                  JOINT RightHandIndex2
                  {
                    OFFSET -5.61113 -0.14381 0.0637072
                    CHANNELS 6 Xposition Yposition Zposition Zrotation Xrotation Yrotation
                    JOINT RightHandIndex3
                    {
                      OFFSET -5.30559 -0.260358 0.0323038
                      CHANNELS 6 Xposition Yposition Zposition Zrotation Xrotation Yrotation
                      End Site
                      {
                        OFFSET -4.6024 0.0126403 0.0555614
                      }
                    }
                  }
                }
                JOINT RightHandRing1
                {
                  OFFSET -20.0757 -0.465264 -1.40835
                  CHANNELS 6 Xposition Yposition Zposition Zrotation Xrotation Yrotation
                  JOINT RightHandRing2
                  {
                    OFFSET -5.8282 -0.0734202 -0.318555
                    CHANNELS 6 Xposition Yposition Zposition Zrotation Xrotation Yrotation
                    JOINT RightHandRing3
                    {
                      OFFSET -4.99779 -0.166056 -0.0436778
                      CHANNELS 6 Xposition Yposition Zposition Zrotation Xrotation Yrotation
                      End Site
                      {
                        OFFSET -4.35293 -0.433383 -0.20375
                      }
                    }
                  }
                }
                JOINT RightHandPinky1
                {
                  OFFSET -17.7764 -1.08587 -5.47918
                  CHANNELS 6 Xposition Yposition Zposition Zrotation Xrotation Yrotation
                  JOINT RightHandPinky2
                  {
                    OFFSET -5.49838 -0.332063 -0.19338
                    CHANNELS 6 Xposition Yposition Zposition Zrotation Xrotation Yrotation
                    JOINT RightHandPinky3
                    {
                      OFFSET -3.49521 -0.191658 -0.134369
                      CHANNELS 6 Xposition Yposition Zposition Zrotation Xrotation Yrotation
                      End Site
                      {
                        OFFSET -3.26448 0.319818 -0.150716
                      }
                    }
                  }
                }
              }
            }
          }
        }
      }
    }
  }
  JOINT LeftUpLeg
  {
    OFFSET 17.4827 -12.2367 2.28338
    CHANNELS 6 Xposition Yposition Zposition Zrotation Xrotation Yrotation
    JOINT LeftLeg
    {
      OFFSET -1.61737 -72.9647 -0.347304
      CHANNELS 6 Xposition Yposition Zposition Zrotation Xrotation Yrotation
      JOINT LeftFoot
      {
        OFFSET 2.3562 -75.684 -7.36344
        CHANNELS 6 Xposition Yposition Zposition Zrotation Xrotation Yrotation
        JOINT LeftToeBase
        {
          OFFSET -0.700171 -20.8856 20.1668
          CHANNELS 6 Xposition Yposition Zposition Zrotation Xrotation Yrotation
          End Site
          {
            OFFSET -1.58457 -0.622643 18.5196
          }
        }
      }
    }
  }
  JOINT RightUpLeg
  {
    OFFSET -17.2196 -12.7586 1.06758
    CHANNELS 6 Xposition Yposition Zposition Zrotation Xrotation Yrotation
    JOINT RightLeg
    {
      OFFSET 1.34775 -72.5188 -0.877096
      CHANNELS 6 Xposition Yposition Zposition Zrotation Xrotation Yrotation
      JOINT RightFoot
      {
        OFFSET -2.56317 -75.6207 -6.78856
        CHANNELS 6 Xposition Yposition Zposition Zrotation Xrotation Yrotation
        JOINT RightToeBase
        {
          OFFSET -0.247822 -21.0622 19.3232
          CHANNELS 6 Xposition Yposition Zposition Zrotation Xrotation Yrotation
          End Site
          {
            OFFSET -0.0898787 -0.551318 19.0079
          }
        }
      }
    }
  }
}
MOTION
Frames:	4
Frame Time:	0.0416667
-0.0106321 0.988642 177.867 1.91073 86.5034 -2.52158 -0.133107 17.534 -1.51384 -1.23758 -0.985907 0.42344 -0.0140236 22.6865 -0.221803 0.497814 0.800255 0.0555067 0.604095 27.2915 -1.22211 0.498448 0.799525 0.0565354 -0.54999 27.7711 0.379849 -0.875324 -6.71474 0.385207 -0.456515 18.6834 4.65447 -1.97003 0.684124 1.15266 0.313645 35.2545 10.0781 -3.97569e-016 3.18055e-015 1.98785e-016 -5.91139 13.8299 16.4589 -3.97569e-016 3.18055e-015 1.98785e-016 5.75366 13.8511 16.9022 -3.97569e-016 3.18055e-015 1.98785e-016 9.65809 17.1798 0.393621 -5.95644 4.27691 -7.64564 21.5048 0.579175 -2.73789 3.47241 -3.34314 13.399 52.3358 1.42958 2.41804 1.37901 -0.124703 -3.03105 41.8847 0.117838 6.21031 13.4075 13.9898 -2.02908 22.8129 -1.60957 2.49076 -13.5374 1.38283 -1.23687 6.02919 0.375492 0.441768 -1.64252 0.105507 1.07236 5.82062 -0.341841 0.444061 -11.0158 0.777403 0.945451 8.57333 -3.68257 5.90761 2.04937 0.101909 8.50151 7.05954 -3.92834 4.59012 1.71187 4.06935 15.3995 5.45408 -3.10462 3.4162 -0.951503 7.56452 21.7862 22.071 -2.18211 6.80559 -3.666 0.227272 -2.08099 5.655 -0.454426 0.363402 -12.5647 0.694727 -0.876416 5.80873 0.138203 0.202517 -7.82338 0.18789 1.09729 22.2301 -1.58609 -1.07237 -7.77694 0.4508 -4.37851 5.51571 -0.442342 0.085295 -16.8473 0.22206 5.19698 5.04027 0.123425 0.426335 -6.76404 0.502994 0.534949 20.5029 -2.14047 -5.05193 -14.5382 1.37072 3.32449 5.3068 0.0720653 0.391791 -10.0258 1.36917 -4.51306 3.22103 -0.125043 0.129337 -14.6303 0.456461 2.05212 -10.1474 17.3477 0.39229 5.00379 3.4364 10.8921 -21.9154 0.397362 -3.70373 3.1519 35.8891 -11.6282 -55.8193 -0.744656 -3.26491 0.699435 0.00700794 -1.17988 -41.5962 -0.0462463 3.11173 1.54177 -5.76491 5.28482 -21.2144 -0.543111 2.08571 17.4501 1.33022 3.31921 -5.60828 -0.0767494 0.0163055 11.6413 -0.0370217 -2.14326 -6.03974 -0.600176 0.0448581 23.1368 -0.0283737 -4.60424 -7.4243 -3.08558 5.52562 -3.11288 0.0907472 -10.6629 -6.19932 -3.17205 4.11568 -2.3938 3.4507 -16.1543 -6.03384 -3.32236 3.71941 4.88103 4.87087 -13.8229 -21.0474 -1.11099 6.52255 11.3073 0.882997 3.58105 -5.61113 -0.14381 0.0637072 9.46923 0.0396825 -0.944766 -5.30559 -0.260358 0.0323038 13.5091 -0.0249994 -1.55723 -20.0757 -0.465264 -1.40835 24.4435 1.64699 5.63444 -5.8282 -0.0734202 -0.318555 22.3038 -1.59113 -5.04951 -4.99779 -0.166056 -0.0436778 19.2056 -0.572816 -0.406254 -17.7764 -1.08587 -5.47918 27.4551 1.62235 3.75792 -5.49838 -0.332063 -0.19338 29.1264 -1.65283 -2.86933 -3.49521 -0.191658 -0.134369 37.1886 -2.4587 -2.25916 17.4827 -12.2367 2.28338 0.0259854 -10.8516 7.83882 -1.61737 -72.9647 -0.347304 -1.11658 29.0543 -2.84369 2.3562 -75.684 -7.36344 3.68302 -14.6204 0.35798 -0.700171 -20.8856 20.1668 -5.13801e-007 -0.00027163 -6.3921e-007 -17.2196 -12.7586 1.06758 -0.874029 -10.0642 -12.8638 1.34775 -72.5188 -0.877096 -4.43006 29.1222 -7.81068 -2.56317 -75.6207 -6.78856 4.26637 -15.2948 23.5552 -0.247822 -21.0622 19.3232 2.16253e-006 -0.000103487 -4.63139e-006 
0.200417 1.11445 177.917 2.14572 86.2383 -2.74379 -0.133107 17.534 -1.51384 -0.761701 -0.745495 0.0575833 -0.0140236 22.6865 -0.221803 0.133532 0.935801 0.00624732 0.604095 27.2915 -1.22211 0.133374 0.935573 0.00751622 -0.54999 27.7711 0.379849 -0.687571 -7.02351 0.452388 -0.456515 18.6834 4.65447 -1.79742 0.685834 1.64133 0.313645 35.2545 10.0781 -0 0 9.93923e-017 -5.91139 13.8299 16.4589 -0 0 9.93923e-017 5.75366 13.8511 16.9022 -0 0 9.93923e-017 9.65809 17.1798 0.393621 -5.8383 4.41975 -8.05082 21.5048 0.579175 -2.73789 -71.3675 0.376848 3.73132 52.3358 1.42958 2.41804 1.37977 -0.125992 -2.63025 41.8847 0.117838 6.21031 14.4885 14.1574 -3.3417 22.8129 -1.60957 2.49076 -13.637 1.39161 -1.22397 6.02919 0.375492 0.441768 -1.69402 0.108776 1.07788 5.82062 -0.341841 0.444061 -11.0406 0.778908 0.948398 8.57333 -3.68257 5.90761 2.04937 0.101909 8.50151 7.05954 -3.92834 4.59012 1.71187 4.06935 15.3995 5.45408 -3.10462 3.4162 -0.951503 7.56452 21.7862 22.071 -2.18211 6.80559 -3.76597 0.238209 -2.06971 5.655 -0.454426 0.363402 -12.6149 0.697116 -0.870316 5.80873 0.138203 0.202517 -7.84854 0.188323 1.10011 22.2301 -1.58609 -1.07237 -7.87626 0.460836 -4.36656 5.51571 -0.442342 0.085295 -16.8989 0.221595 5.20286 5.04027 0.123425 0.426335 -6.78877 0.504689 0.537889 20.5029 -2.14047 -5.05193 -14.6384 1.37934 3.33763 5.3068 0.0720653 0.391791 -10.0757 1.37534 -4.50651 3.22103 -0.125043 0.129337 -14.6555 0.45686 2.055 -10.1474 17.3477 0.39229 4.85213 3.2469 10.2259 -21.9154 0.397362 -3.70373 58.4246 28.1154 13.2491 -55.8193 -0.744656 -3.26491 0.699755 0.00824786 -2.28722 -41.5962 -0.0462463 3.11173 2.19196 -6.58207 6.17927 -21.2144 -0.543111 2.08571 17.2856 1.31989 3.34187 -5.60828 -0.0767494 0.0163055 11.5562 -0.0354402 -2.13364 -6.03974 -0.600176 0.0448581 23.096 -0.027256 -4.59967 -7.4243 -3.08558 5.52562 -3.11288 0.0907482 -10.6629 -6.19932 -3.17205 4.11568 -2.3938 3.4507 -16.1543 -6.03384 -3.32236 3.71941 4.88103 4.87087 -13.8229 -21.0474 -1.11099 6.52255 11.1503 0.870894 3.6015 -5.61113 -0.14381 0.0637072 9.39058 0.0400495 -0.935661 -5.30559 -0.260358 0.0323038 13.4698 -0.0243866 -1.55272 -20.0757 -0.465264 -1.40835 24.2683 1.63902 5.65971 -5.8282 -0.0734202 -0.318555 22.2136 -1.58274 -5.04165 -4.99779 -0.166056 -0.0436778 19.1622 -0.570968 -0.401632 -17.7764 -1.08587 -5.47918 27.2701 1.61534 3.785 -5.49838 -0.332063 -0.19338 29.0341 -1.64525 -2.86104 -3.49521 -0.191658 -0.134369 37.1425 -2.45422 -2.25569 17.4827 -12.2367 2.28338 0.108669 -10.4765 8.13653 -1.61737 -72.9647 -0.347304 -1.42915 28.8677 -2.95478 2.3562 -75.684 -7.36344 3.96784 -14.5103 0.385544 -0.700171 -20.8856 20.1668 -3.22849e-007 -0.000269148 -8.28899e-007 -17.2196 -12.7586 1.06758 -0.895915 -9.78803 -12.8157 1.34775 -72.5188 -0.877096 -4.54404 28.9948 -7.7867 -2.56317 -75.6207 -6.78856 4.40182 -15.0446 -4.17856 -0.247822 -21.0622 19.3232 2.45231e-006 -5.0854e-005 -3.20029e-006 
0.450156 1.36893 177.992 4.30836 85.9122 -4.9342 -0.133107 17.534 -1.51384 -0.260081 -0.119166 -0.729952 -0.0140236 22.6865 -0.221803 -0.222311 0.948019 -0.0980082 0.604095 27.2915 -1.22211 -0.22348 0.947907 -0.097023 -0.54999 27.7711 0.379849 -0.789308 -7.46152 0.729582 -0.456515 18.6834 4.65447 -1.73686 0.568438 2.84876 0.313645 35.2545 10.0781 0 1.59028e-015 -0 -5.91139 13.8299 16.4589 0 1.59028e-015 -0 5.75366 13.8511 16.9022 0 1.59028e-015 -0 9.65809 17.1798 0.393621 -6.28622 4.84205 -8.83551 21.5048 0.579175 -2.73789 -65.1355 -0.389348 5.86372 52.3358 1.42958 2.41804 1.38013 -0.126571 -2.44999 41.8847 0.117838 6.21031 14.9878 14.711 -4.9558 22.8129 -1.60957 2.49076 -13.195 1.35239 -1.28111 6.02919 0.375492 0.441768 -1.4656 0.0941996 1.05344 5.82062 -0.341841 0.444061 -10.9308 0.772225 0.935339 8.57333 -3.68257 5.90761 2.04937 0.101909 8.50151 7.05954 -3.92834 4.59012 1.71187 4.06935 15.3995 5.45408 -3.10462 3.4162 -0.951503 7.56452 21.7862 22.071 -2.18211 6.80559 -3.32231 0.189461 -2.11959 5.655 -0.454426 0.363402 -12.392 0.686476 -0.89738 5.80873 0.138203 0.202517 -7.73698 0.186412 1.08755 22.2301 -1.58609 -1.07237 -7.43526 0.416077 -4.41946 5.51571 -0.442342 0.085295 -16.6701 0.223625 5.17677 5.04027 0.123425 0.426335 -6.6791 0.497187 0.52482 20.5029 -2.14047 -5.05193 -14.1935 1.34087 3.27944 5.3068 0.0720653 0.391791 -9.85414 1.34791 -4.53552 3.22103 -0.125043 0.129337 -14.5439 0.455072 2.04226 -10.1474 17.3477 0.39229 4.20737 2.93183 9.34054 -21.9154 0.397362 -3.70373 53.293 29.46 16.5669 -55.8193 -0.744656 -3.26491 0.699543 0.00738274 -1.513 -41.5962 -0.0462463 3.11173 3.62794 -5.56363 7.68758 -21.2144 -0.543111 2.08571 17.0058 1.30221 3.38031 -5.60828 -0.0767494 0.0163055 11.4115 -0.0327749 -2.11731 -6.03974 -0.600176 0.0448581 23.0265 -0.0253592 -4.59189 -7.4243 -3.08558 5.52562 -3.1129 0.0907535 -10.6629 -6.19932 -3.17205 4.11568 -2.3938 3.4507 -16.1543 -6.03384 -3.32236 3.71941 4.88103 4.87087 -13.8229 -21.0474 -1.11099 6.52255 10.8835 0.850187 3.63619 -5.61113 -0.14381 0.0637072 9.25676 0.0406519 -0.920216 -5.30559 -0.260358 0.0323038 13.4029 -0.0233624 -1.54507 -20.0757 -0.465264 -1.40835 23.9702 1.62531 5.70262 -5.8282 -0.0734202 -0.318555 22.0602 -1.56846 -5.02827 -4.99779 -0.166056 -0.0436778 19.0883 -0.567854 -0.393759 -17.7764 -1.08587 -5.47918 26.9556 1.60326 3.83097 -5.49838 -0.332063 -0.19338 28.8773 -1.63241 -2.84693 -3.49521 -0.191658 -0.134369 37.0641 -2.4466 -2.24977 17.4827 -12.2367 2.28338 0.0947138 -9.99723 8.48567 -1.61737 -72.9647 -0.347304 -1.91533 28.5021 -2.99512 2.3562 -75.684 -7.36344 4.35247 -14.2611 0.409901 -0.700171 -20.8856 20.1668 -5.05427e-007 -0.000252781 -5.7249e-007 -17.2196 -12.7586 1.06758 -1.03269 -9.56822 -12.7306 1.34775 -72.5188 -0.877096 -4.78608 28.9244 -7.69889 -2.56317 -75.6207 -6.78856 4.51943 -14.9802 -2.23125 -0.247822 -21.0622 19.3232 2.20963e-006 -3.2004e-005 -3.02806e-006 
0.714378 1.70873 177.933 10.2794 85.6767 -11.2944 -0.133107 17.534 -1.51384 0.265373 0.690656 -1.82426 -0.0140236 22.6865 -0.221803 -0.674941 0.847485 -0.23846 0.604095 27.2915 -1.22211 -0.676995 0.845411 -0.239392 -0.54999 27.7711 0.379849 -1.23643 -7.93609 1.25157 -0.456515 18.6834 4.65447 -1.65937 0.0691474 4.89573 0.313645 35.2545 10.0781 1.59028e-015 0 -6.95746e-016 -5.91139 13.8299 16.4589 1.59028e-015 0 -6.95746e-016 5.75366 13.8511 16.9022 1.59028e-015 0 -6.95746e-016 9.65809 17.1798 0.393621 -7.10701 5.37985 -9.72329 21.5048 0.579175 -2.73789 -62.2479 0.995428 8.71918 52.3358 1.42958 2.41804 1.38013 -0.126578 -2.4472 41.8847 0.117838 6.21031 13.8226 16.594 -6.45201 22.8129 -1.60957 2.49076 -12.5496 1.29435 -1.36401 6.02919 0.375492 0.441768 -1.13186 0.0727256 1.01783 5.82062 -0.341841 0.444061 -10.7704 0.762434 0.916278 8.57333 -3.68257 5.90761 2.04937 0.101909 8.50151 7.05954 -3.92834 4.59012 1.71187 4.06935 15.3995 5.45408 -3.10462 3.4162 -0.951503 7.56452 21.7862 22.071 -2.18211 6.80559 -2.67433 0.117593 -2.19176 5.655 -0.454426 0.363402 -12.0664 0.670745 -0.936834 5.80873 0.138203 0.202517 -7.57403 0.183571 1.06921 22.2301 -1.58609 -1.07237 -6.79125 0.350014 -4.4961 5.51571 -0.442342 0.085295 -16.3359 0.226408 5.13864 5.04027 0.123425 0.426335 -6.51891 0.486206 0.505741 20.5029 -2.14047 -5.05193 -13.5438 1.2839 3.19498 5.3068 0.0720653 0.391791 -9.5305 1.30767 -4.5777 3.22103 -0.125043 0.129337 -14.3809 0.452418 2.02366 -10.1474 17.3477 0.39229 3.19919 2.6157 8.68797 -21.9154 0.397362 -3.70373 50.9722 31.4517 20.2711 -55.8193 -0.744656 -3.26491 0.698334 0.00121696 3.94331 -41.5962 -0.0462463 3.11173 3.08235 -2.31429 6.6693 -21.2144 -0.543111 2.08571 17.0053 1.3022 3.38037 -5.60828 -0.0767494 0.0163055 11.4113 -0.0327713 -2.11727 -6.03974 -0.600176 0.0448581 23.0263 -0.0253539 -4.59187 -7.4243 -3.08558 5.52562 -3.11289 0.0907537 -10.6629 -6.19932 -3.17205 4.11568 -2.3938 3.4507 -16.1543 -6.03384 -3.32236 3.71941 4.88103 4.87087 -13.8229 -21.0474 -1.11099 6.52255 10.883 0.850164 3.63626 -5.61113 -0.14381 0.0637072 9.25652 0.0406574 -0.920212 -5.30559 -0.260358 0.0323038 13.4027 -0.02337 -1.54506 -20.0757 -0.465264 -1.40835 23.9697 1.6253 5.70268 -5.8282 -0.0734202 -0.318555 22.06 -1.56843 -5.02825 -4.99779 -0.166056 -0.0436778 19.0881 -0.567846 -0.393747 -17.7764 -1.08587 -5.47918 26.955 1.60327 3.83105 -5.49838 -0.332063 -0.19338 28.877 -1.63238 -2.84691 -3.49521 -0.191658 -0.134369 37.064 -2.4466 -2.24977 17.4827 -12.2367 2.28338 -0.31496 -9.72678 8.59514 -1.61737 -72.9647 -0.347304 -2.45423 28.196 -2.29605 2.3562 -75.684 -7.36344 4.62525 -14.0676 0.426497 -0.700171 -20.8856 20.1668 2.65844e-007 -0.000235334 2.2793e-007 -17.2196 -12.7586 1.06758 -1.49402 -9.92089 -12.5352 1.34775 -72.5188 -0.877096 -5.27244 29.4751 -7.40753 -2.56317 -75.6207 -6.78856 4.8203 -14.9889 -1.90903 -0.247822 -21.0622 19.3232 1.87892e-006 -6.02704e-005 5.74764e-006 
